<svg xmlns="http://www.w3.org/2000/svg" xmlns:xlink="http://www.w3.org/1999/xlink" viewBox="0 0 51 51"><defs><style>.cls-1{stroke-width:1.5px;fill:url(#linear-gradient);stroke:url(#linear-gradient-2);}.cls-2{fill:url(#linear-gradient-3);}.cls-3{fill:none;stroke:#fff;stroke-linecap:round;stroke-width:3px;}</style><linearGradient id="linear-gradient" x1="69.23" y1="170.63" x2="-21.09" y2="36.11" gradientTransform="matrix(1, 0, 0, -1, 0, 131)" gradientUnits="userSpaceOnUse"><stop offset="0" stop-color="#b1e2ff"/><stop offset="1" stop-color="#68c7ff"/></linearGradient><linearGradient id="linear-gradient-2" x1="25.5" y1="129.5" x2="25.5" y2="81.5" gradientTransform="matrix(1, 0, 0, -1, 0, 131)" gradientUnits="userSpaceOnUse"><stop offset="0" stop-color="#bee7ff"/><stop offset="1" stop-color="#52bfff"/></linearGradient><linearGradient id="linear-gradient-3" x1="-612.95" y1="128.65" x2="-644.45" y2="169.15" gradientTransform="translate(-606 178) rotate(180)" gradientUnits="userSpaceOnUse"><stop offset="0.08" stop-color="#b1e2ff"/><stop offset="1" stop-color="#68c7ff"/></linearGradient></defs><g id="Layer_2" data-name="Layer 2"><g id="Layer_1-2" data-name="Layer 1"><path class="cls-1" d="M25.5.75h0A24.75,24.75,0,0,1,50.25,25.5h0A24.75,24.75,0,0,1,25.5,50.25h0A24.75,24.75,0,0,1,.75,25.5h0A24.75,24.75,0,0,1,25.5.75Z"/><path class="cls-2" d="M25.5,6.5h0a19,19,0,0,0-19,19h0a19,19,0,0,0,19,19h0a19,19,0,0,0,19-19h0A19,19,0,0,0,25.5,6.5Z"/><path class="cls-3" d="M25.5,20.5v10m-5-5h10"/></g></g></svg>