<svg width="265" height="98" viewBox="0 0 265 98" fill="none" xmlns="http://www.w3.org/2000/svg">
<g filter="url(#filter0_d_2_39)">
<rect x="25.0002" y="25" width="215" height="48" rx="24" fill="white"/>
</g>
<path d="M93.3291 51.512C92.1984 52.632 90.7797 53.192 89.0731 53.192C87.3664 53.192 85.9477 52.632 84.8171 51.512C83.6971 50.392 83.1371 49.0213 83.1371 47.4C83.1371 45.7893 83.7024 44.424 84.8331 43.304C85.9744 42.1733 87.3984 41.608 89.1051 41.608C90.8117 41.608 92.2251 42.168 93.3451 43.288C94.4757 44.408 95.0411 45.7787 95.0411 47.4C95.0411 49.0107 94.4704 50.3813 93.3291 51.512ZM86.6731 49.896C87.3131 50.5787 88.1237 50.92 89.1051 50.92C90.0864 50.92 90.8917 50.584 91.5211 49.912C92.1504 49.2293 92.4651 48.392 92.4651 47.4C92.4651 46.4187 92.1451 45.5867 91.5051 44.904C90.8651 44.2213 90.0544 43.88 89.0731 43.88C88.0917 43.88 87.2864 44.2213 86.6571 44.904C86.0277 45.576 85.7131 46.408 85.7131 47.4C85.7131 48.3813 86.0331 49.2133 86.6731 49.896ZM101.019 53.192C99.7388 53.192 98.6721 52.76 97.8188 51.896C96.9761 51.032 96.5548 49.976 96.5548 48.728C96.5548 47.4907 96.9815 46.44 97.8348 45.576C98.6881 44.7013 99.7601 44.264 101.051 44.264C102.427 44.264 103.563 44.7653 104.459 45.768L103.035 47.208C102.437 46.6427 101.771 46.36 101.035 46.36C100.437 46.36 99.9415 46.5893 99.5468 47.048C99.1521 47.5067 98.9548 48.0667 98.9548 48.728C98.9548 49.4 99.1521 49.9653 99.5468 50.424C99.9521 50.872 100.48 51.096 101.131 51.096C101.803 51.096 102.459 50.792 103.099 50.184L104.523 51.624C104.053 52.136 103.552 52.5253 103.019 52.792C102.485 53.0587 101.819 53.192 101.019 53.192ZM112.815 44.424V46.504H110.271V53H107.807V46.504H105.263V44.424H112.815ZM116.575 53.16C115.732 53.16 115.028 52.9253 114.463 52.456C113.908 51.9867 113.631 51.336 113.631 50.504C113.631 49.5973 113.94 48.9147 114.559 48.456C115.188 47.9973 116.031 47.768 117.087 47.768C117.801 47.768 118.5 47.8853 119.183 48.12V47.976C119.183 46.9307 118.569 46.408 117.343 46.408C116.607 46.408 115.817 46.5627 114.975 46.872L114.367 45.016C115.412 44.5573 116.521 44.328 117.695 44.328C118.985 44.328 119.951 44.648 120.591 45.288C121.209 45.9067 121.519 46.8187 121.519 48.024V53H119.167V52.072C118.516 52.7973 117.652 53.16 116.575 53.16ZM117.311 51.48C117.876 51.48 118.335 51.3413 118.687 51.064C119.039 50.776 119.215 50.4133 119.215 49.976V49.544C118.756 49.3307 118.239 49.224 117.663 49.224C117.129 49.224 116.713 49.3307 116.415 49.544C116.127 49.7467 115.983 50.0453 115.983 50.44C115.983 50.76 116.105 51.016 116.351 51.208C116.596 51.3893 116.916 51.48 117.311 51.48ZM123.611 44.424H128.315C129.19 44.424 129.883 44.616 130.395 45C130.918 45.384 131.179 45.9067 131.179 46.568C131.179 47.464 130.726 48.1093 129.819 48.504C130.939 48.8453 131.499 49.5653 131.499 50.664C131.499 51.3893 131.211 51.96 130.635 52.376C130.07 52.792 129.291 53 128.299 53H123.611V44.424ZM126.011 47.864H127.723C128.054 47.864 128.305 47.784 128.475 47.624C128.657 47.464 128.747 47.256 128.747 47C128.747 46.776 128.662 46.5893 128.491 46.44C128.331 46.2907 128.086 46.216 127.755 46.216H126.011V47.864ZM126.011 51.096H127.931C128.667 51.096 129.035 50.808 129.035 50.232C129.035 49.6773 128.646 49.4 127.867 49.4H126.011V51.096ZM141.189 44.424V53H138.837V48.008L135.493 53H133.205V44.424H135.557V49.432L138.901 44.424H141.189ZM150.065 44.424V46.504H147.521V53H145.057V46.504H142.513V44.424H150.065ZM151.393 53V44.424H153.825V47.256H155.585C156.619 47.256 157.446 47.496 158.065 47.976C158.694 48.456 159.009 49.16 159.009 50.088C159.009 50.9947 158.715 51.7093 158.129 52.232C157.553 52.744 156.747 53 155.713 53H151.393ZM155.345 49.096H153.825V51.08H155.361C156.161 51.08 156.561 50.7387 156.561 50.056C156.561 49.7573 156.454 49.5227 156.241 49.352C156.038 49.1813 155.739 49.096 155.345 49.096ZM165.717 47.144L164.677 45.656C165.648 44.76 166.853 44.312 168.293 44.312C169.221 44.312 169.995 44.536 170.613 44.984C171.243 45.4213 171.557 45.9707 171.557 46.632C171.557 47.528 171.12 48.1733 170.245 48.568C171.259 48.9307 171.765 49.5973 171.765 50.568C171.765 51.3147 171.44 51.9387 170.789 52.44C170.139 52.9413 169.312 53.192 168.309 53.192C166.731 53.192 165.429 52.7387 164.405 51.832L165.525 50.28C166.283 50.9307 167.141 51.256 168.101 51.256C168.464 51.256 168.763 51.1707 168.997 51C169.243 50.8187 169.365 50.6 169.365 50.344C169.365 50.088 169.237 49.88 168.981 49.72C168.736 49.5493 168.389 49.464 167.941 49.464H166.933V47.944H167.925C168.299 47.944 168.597 47.8587 168.821 47.688C169.045 47.5173 169.157 47.3093 169.157 47.064C169.157 46.84 169.051 46.648 168.837 46.488C168.624 46.328 168.357 46.248 168.037 46.248C167.12 46.248 166.347 46.5467 165.717 47.144ZM176.012 53.16C175.17 53.16 174.466 52.9253 173.9 52.456C173.346 51.9867 173.068 51.336 173.068 50.504C173.068 49.5973 173.378 48.9147 173.996 48.456C174.626 47.9973 175.468 47.768 176.524 47.768C177.239 47.768 177.938 47.8853 178.62 48.12V47.976C178.62 46.9307 178.007 46.408 176.78 46.408C176.044 46.408 175.255 46.5627 174.412 46.872L173.804 45.016C174.85 44.5573 175.959 44.328 177.132 44.328C178.423 44.328 179.388 44.648 180.028 45.288C180.647 45.9067 180.956 46.8187 180.956 48.024V53H178.604V52.072C177.954 52.7973 177.09 53.16 176.012 53.16ZM176.748 51.48C177.314 51.48 177.772 51.3413 178.124 51.064C178.476 50.776 178.652 50.4133 178.652 49.976V49.544C178.194 49.3307 177.676 49.224 177.1 49.224C176.567 49.224 176.151 49.3307 175.852 49.544C175.564 49.7467 175.42 50.0453 175.42 50.44C175.42 50.76 175.543 51.016 175.788 51.208C176.034 51.3893 176.354 51.48 176.748 51.48ZM190.649 44.424V53H188.217V50.248H186.905L185.097 53H182.281L184.473 49.848C183.278 49.3893 182.681 48.536 182.681 47.288C182.681 46.4133 182.985 45.72 183.593 45.208C184.201 44.6853 185.054 44.424 186.153 44.424H190.649ZM186.569 48.488H188.217V46.328H186.553C186.105 46.328 185.758 46.424 185.513 46.616C185.268 46.7973 185.145 47.064 185.145 47.416C185.145 47.7573 185.268 48.024 185.513 48.216C185.769 48.3973 186.121 48.488 186.569 48.488ZM192.83 44.424H197.534C198.409 44.424 199.102 44.616 199.614 45C200.137 45.384 200.398 45.9067 200.398 46.568C200.398 47.464 199.945 48.1093 199.038 48.504C200.158 48.8453 200.718 49.5653 200.718 50.664C200.718 51.3893 200.43 51.96 199.854 52.376C199.289 52.792 198.51 53 197.518 53H192.83V44.424ZM195.23 47.864H196.942C197.273 47.864 197.524 47.784 197.694 47.624C197.876 47.464 197.966 47.256 197.966 47C197.966 46.776 197.881 46.5893 197.71 46.44C197.55 46.2907 197.305 46.216 196.974 46.216H195.23V47.864ZM195.23 51.096H197.15C197.886 51.096 198.254 50.808 198.254 50.232C198.254 49.6773 197.865 49.4 197.086 49.4H195.23V51.096ZM202.424 53V44.424H204.856V47.944L207.928 44.424H210.728L207.576 47.944L211.128 53H208.248L205.96 49.736L204.856 50.936V53H202.424ZM214.253 55.608C213.485 55.608 212.765 55.4107 212.093 55.016L212.909 53.256C213.283 53.48 213.629 53.592 213.949 53.592C214.333 53.592 214.616 53.4053 214.797 53.032L211.437 44.424H214.013L215.965 50.264L217.837 44.424H220.365L217.069 53.208C216.739 54.0933 216.365 54.712 215.949 55.064C215.533 55.4267 214.968 55.608 214.253 55.608Z" fill="#52BFFF"/>
<rect x="30.0002" y="30" width="38" height="38" rx="19" fill="url(#paint0_linear_2_39)"/>
<path d="M49 42C45.1422 42 42 45.1265 42 48.9996C42 50.1974 42.3111 51.364 42.9022 52.4061L42.0466 54.9726C41.9533 55.2526 42.0311 55.5637 42.2333 55.7659C42.4642 55.9736 42.7512 56.0625 43.0266 55.9526L45.5933 55.097C46.6355 55.6881 47.8022 55.9992 49 55.9992C52.8733 55.9992 56 52.8571 56 48.9996C56 45.1265 52.8733 42 49 42V42ZM45.8889 49.7773C45.4688 49.7773 45.1111 49.4196 45.1111 48.9996C45.1111 48.5641 45.4688 48.2219 45.8889 48.2219C46.3244 48.2219 46.6667 48.5641 46.6667 48.9996C46.6667 49.4196 46.3244 49.7773 45.8889 49.7773ZM49 49.7773C48.5799 49.7773 48.2222 49.4196 48.2222 48.9996C48.2222 48.5641 48.5799 48.2219 49 48.2219C49.4355 48.2219 49.7778 48.5641 49.7778 48.9996C49.7778 49.4196 49.4355 49.7773 49 49.7773ZM52.1111 49.7773C51.6911 49.7773 51.3333 49.4196 51.3333 48.9996C51.3333 48.5641 51.6911 48.2219 52.1111 48.2219C52.5466 48.2219 52.8889 48.5641 52.8889 48.9996C52.8889 49.4196 52.5466 49.7773 52.1111 49.7773Z" fill="white"/>
<defs>
<filter id="filter0_d_2_39" x="0.000244141" y="0" width="265" height="98" filterUnits="userSpaceOnUse" color-interpolation-filters="sRGB">
<feFlood flood-opacity="0" result="BackgroundImageFix"/>
<feColorMatrix in="SourceAlpha" type="matrix" values="0 0 0 0 0 0 0 0 0 0 0 0 0 0 0 0 0 0 127 0" result="hardAlpha"/>
<feOffset/>
<feGaussianBlur stdDeviation="12.5"/>
<feColorMatrix type="matrix" values="0 0 0 0 0.321569 0 0 0 0 0.74902 0 0 0 0 1 0 0 0 0.15 0"/>
<feBlend mode="normal" in2="BackgroundImageFix" result="effect1_dropShadow_2_39"/>
<feBlend mode="normal" in="SourceGraphic" in2="effect1_dropShadow_2_39" result="shape"/>
</filter>
<linearGradient id="paint0_linear_2_39" x1="78.5002" y1="-6" x2="7.00024" y2="100.5" gradientUnits="userSpaceOnUse">
<stop stop-color="#B1E2FF"/>
<stop offset="1" stop-color="#68C7FF"/>
</linearGradient>
</defs>
</svg>
